<?xml version="1.0" encoding="utf-8"?>
<!-- Generator: Adobe Illustrator 18.0.0, SVG Export Plug-In . SVG Version: 6.00 Build 0)  -->
<!DOCTYPE svg PUBLIC "-//W3C//DTD SVG 1.1//EN" "http://www.w3.org/Graphics/SVG/1.1/DTD/svg11.dtd">
<svg version="1.1" id="Layer_1" xmlns="http://www.w3.org/2000/svg" xmlns:xlink="http://www.w3.org/1999/xlink" x="0px" y="0px"
	 width="26px" height="26px" viewBox="82 82 26 26" enable-background="new 82 82 26 26" xml:space="preserve">
<g transform="translate(0,-952.36218)">
	<path fill="#E86D6D" d="M94.9,1034.4c-1.3,0-2.3,1-2.7,2.1c-3.4,6.8-6.6,13.5-10,20.3c-0.8,1.7,0.8,3.8,2.6,3.6c3.4,0,6.6,0,10,0
		c3.4,0,6.9,0,10.3,0c1.9,0.2,3.4-1.9,2.6-3.6c-3.4-6.8-6.8-13.5-10.3-20.3C97.1,1035.4,96.1,1034.3,94.9,1034.4z M94.9,1042.2
		c0.7,0,1.3,0.6,1.3,1.3l-0.7,9.1h-1.3l-0.7-9.1C93.5,1042.7,94.1,1042.2,94.9,1042.2z M94.9,1053.9c0.7,0,1.3,0.6,1.3,1.3
		s-0.6,1.3-1.3,1.3c-0.7,0-1.3-0.6-1.3-1.3C93.5,1054.4,94.1,1053.9,94.9,1053.9L94.9,1053.9z"/>
</g>
</svg>
